<svg width="24" height="24" viewBox="0 0 24 24" fill="none" xmlns="http://www.w3.org/2000/svg">
<path d="M16.998 7.12694C17.3193 7.04228 17.6533 6.99994 18 6.99994C18.5687 7.00053 19.1307 7.12236 19.6485 7.35731C20.1664 7.59226 20.6282 7.93493 21.0032 8.36247C21.3781 8.79 21.6576 9.29257 21.823 9.83666C21.9884 10.3807 22.0358 10.9538 21.9622 11.5177C21.8886 12.0816 21.6956 12.6233 21.3961 13.1067C21.0966 13.5901 20.6975 14.0041 20.2253 14.321C19.7532 14.638 19.2188 14.8506 18.658 14.9448C18.0972 15.0389 17.5228 15.0124 16.973 14.8669M16.998 7.12694L17 6.99994C17.0016 6.01199 16.6374 5.05842 15.9778 4.32294C15.3182 3.58746 14.4097 3.12212 13.4274 3.01656C12.4451 2.911 11.4585 3.1727 10.6576 3.75124C9.85679 4.32978 9.29839 5.18422 9.09 6.14994M16.998 7.12694C16.9773 7.78565 16.7942 8.42905 16.465 8.99994M16.973 14.8669C16.991 14.7469 17 14.6246 17 14.4999C17.0001 13.9236 16.8011 13.3649 16.4367 12.9185C16.0722 12.472 15.5647 12.1652 15 12.0499M16.973 14.8669C16.885 15.4599 16.5869 16.0015 16.1329 16.393C15.679 16.7846 15.0995 17 14.5 16.9999H14C12.9391 16.9999 11.9217 17.4214 11.1716 18.1715C10.4214 18.9217 10 19.9391 10 20.9999M9.09 6.14994C8.40235 5.95468 7.67493 5.94727 6.98344 6.12847C6.29194 6.30967 5.66164 6.67287 5.15812 7.18027C4.6546 7.68768 4.29625 8.32074 4.12036 9.01361C3.94447 9.70647 3.95747 10.4338 4.158 11.1199M9.09 6.14994C10.0924 6.4338 10.9445 7.09752 11.465 7.99994M4.158 11.1199C3.46604 11.3235 2.87155 11.7695 2.48153 12.3762C2.09151 12.9829 1.93306 13.7098 2.03518 14.4238C2.13731 15.1379 2.49317 15.7912 3.03763 16.2643C3.58209 16.7374 4.27873 16.9985 5 16.9999C5.62065 17.0003 6.22613 16.8081 6.73298 16.4499C7.23984 16.0917 7.62312 15.5851 7.83 14.9999M4.158 11.1199C4.24867 11.4313 4.375 11.7246 4.535 11.9999" stroke="#FF98B0" stroke-width="1.5" stroke-linecap="round" stroke-linejoin="round"/>
<path d="M11.836 11.744C11.326 12.235 10.453 12.32 9.707 11.901C8.961 11.481 8.58 10.691 8.735 10" stroke="#FF98B0" stroke-width="1.5" stroke-linecap="round"/>
</svg>
