<svg width="24" height="24" viewBox="0 0 24 24" fill="none" xmlns="http://www.w3.org/2000/svg">
<path fill-rule="evenodd" clip-rule="evenodd" d="M3.14891 9.5447C3.82931 12.1895 5.26451 14.9135 6.94331 16.5923C9.23891 18.8879 11.4673 19.7903 13.3597 19.8635C15.2449 19.9355 16.9189 19.1867 18.1453 17.9579C18.6973 17.4035 19.0525 16.6019 19.2013 15.6059C19.3513 14.6135 19.2913 13.4699 19.0597 12.2855C18.1765 7.7555 13.9597 4.1531 8.75411 2.8859C6.44531 2.3243 4.68371 2.4167 3.72131 3.3815C3.18371 3.9215 2.85251 4.7687 2.75771 5.8655C2.66531 6.9551 2.80931 8.2259 3.14891 9.5447ZM1.47371 5.8127C1.57691 4.5983 1.95371 3.4763 2.75051 2.6759C4.27691 1.1459 6.79451 1.2527 9.13451 1.8227C14.7385 3.1871 19.3561 7.0787 20.3305 12.0779C20.5765 13.3379 20.6497 14.5919 20.4793 15.7199C20.3113 16.8431 19.8937 17.8835 19.1149 18.6647C18.3544 19.4336 17.4419 20.0355 16.4356 20.4318C15.4294 20.8281 14.3515 21.0101 13.2709 20.9663C10.9249 20.8775 8.39892 19.7651 5.95691 17.3231C4.11131 15.4775 2.60291 12.5759 1.89011 9.8075C1.53251 8.4191 1.36811 7.0367 1.47371 5.8127Z" fill="#FF98B0"/>
<path fill-rule="evenodd" clip-rule="evenodd" d="M13.3261 8.29427C13.6777 8.34587 13.9141 8.63027 13.8529 8.93027L13.2397 11.9759L16.1317 15.2855L17.9521 17.7143L20.3605 21.3263C20.5369 21.5915 20.4289 21.9287 20.1193 22.0787C19.8097 22.2299 19.4161 22.1375 19.2397 21.8723L16.8481 18.2843L15.2137 16.1063L10.4113 15.4727C10.0597 15.4259 9.81846 15.1439 9.87246 14.8439C9.92646 14.5439 10.2565 14.3363 10.6081 14.3831L14.1397 14.8499L12.0673 12.4763L7.36326 8.44427C7.3044 8.39768 7.25687 8.33836 7.22423 8.27076C7.19159 8.20316 7.17469 8.12905 7.17481 8.05398C7.17492 7.97892 7.19205 7.90485 7.22489 7.83736C7.25774 7.76986 7.30546 7.71068 7.36446 7.66427C7.49385 7.56038 7.65494 7.50396 7.82088 7.5044C7.98682 7.50483 8.14761 7.56211 8.27646 7.66667L12.1321 10.9715L12.5809 8.74427C12.6409 8.44427 12.9745 8.24267 13.3261 8.29427Z" fill="#FF98B0"/>
</svg>
