<svg width="24" height="24" viewBox="0 0 24 24" fill="none" xmlns="http://www.w3.org/2000/svg">
<g clip-path="url(#clip0_81_1051)">
<path d="M12.025 18.5C11.1557 18.5 10.328 18.3347 9.54203 18.004C8.75603 17.6734 8.05537 17.2 7.44003 16.584C6.8247 15.968 6.3517 15.2677 6.02103 14.483C5.69037 13.6964 5.52503 12.8687 5.52503 12C5.52503 11.3294 5.62503 10.677 5.82503 10.043C6.02503 9.40903 6.3167 8.82037 6.70003 8.27703C6.8527 8.0697 7.0617 7.9907 7.32703 8.04003C7.59237 8.08937 7.77903 8.24203 7.88703 8.49803C8.2497 9.36337 8.68703 10.1757 9.19903 10.935C9.71103 11.6944 10.2977 12.4044 10.959 13.065C11.6204 13.7257 12.331 14.3127 13.091 14.826C13.851 15.3394 14.663 15.777 15.527 16.139C15.7837 16.2464 15.9367 16.4327 15.986 16.698C16.0354 16.9634 15.956 17.1724 15.748 17.325C15.2047 17.7084 14.616 18 13.982 18.2C13.348 18.4 12.6957 18.5 12.025 18.5ZM17.542 14.334C17.404 14.2894 17.3054 14.202 17.246 14.072C17.1874 13.942 17.1767 13.8057 17.214 13.663C17.5307 12.6837 17.5767 11.7007 17.352 10.714C17.1274 9.72737 16.6404 8.85937 15.891 8.11003C15.1664 7.38603 14.3064 6.90303 13.311 6.66103C12.3157 6.41903 11.3364 6.44837 10.373 6.74903C10.2437 6.78637 10.115 6.77537 9.98703 6.71603C9.85837 6.65737 9.7697 6.56503 9.72103 6.43903C9.67237 6.3137 9.6787 6.19037 9.74003 6.06903C9.80003 5.94637 9.89337 5.8647 10.02 5.82403C11.1694 5.44603 12.3384 5.3937 13.527 5.66703C14.7157 5.94103 15.7497 6.5177 16.629 7.39703C17.5044 8.27303 18.0767 9.30203 18.346 10.484C18.6154 11.666 18.5674 12.832 18.202 13.982C18.1614 14.124 18.0767 14.2297 17.948 14.299C17.82 14.3684 17.6847 14.3804 17.542 14.335M12 3.27003C11.858 3.27003 11.739 3.22237 11.643 3.12703C11.547 3.0317 11.4994 2.9127 11.5 2.77003V1.38503C11.5 1.24237 11.5477 1.12337 11.643 1.02803C11.7384 0.932033 11.8574 0.884033 12 0.884033C12.1427 0.884033 12.2617 0.932033 12.357 1.02803C12.4524 1.12403 12.5 1.24303 12.5 1.38503V2.76903C12.5 2.9117 12.4524 3.0307 12.357 3.12603C12.2617 3.22137 12.1427 3.27003 12 3.27003ZM12 23.116C11.858 23.116 11.739 23.068 11.643 22.972C11.5477 22.8767 11.5 22.7577 11.5 22.615V21.231C11.5 21.0884 11.5477 20.9694 11.643 20.874C11.7384 20.7787 11.8574 20.731 12 20.731C12.1427 20.731 12.2617 20.7787 12.357 20.874C12.4524 20.9694 12.5 21.0884 12.5 21.231V22.615C12.5 22.7577 12.4524 22.8767 12.357 22.972C12.2617 23.068 12.1427 23.116 12 23.116ZM18.183 5.82303C18.0724 5.71303 18.017 5.59403 18.017 5.46603C18.017 5.33803 18.0724 5.21937 18.183 5.11003L19.113 4.17903C19.2064 4.0857 19.3204 4.0357 19.455 4.02903C19.5884 4.02237 19.7104 4.07237 19.821 4.17903C19.931 4.28903 19.986 4.40803 19.986 4.53603C19.986 4.66403 19.931 4.7827 19.821 4.89203L18.891 5.82303C18.793 5.92037 18.678 5.97237 18.546 5.97903C18.414 5.9857 18.293 5.9337 18.183 5.82303ZM4.17903 19.821C4.06903 19.711 4.01403 19.5924 4.01403 19.465C4.01403 19.337 4.06903 19.218 4.17903 19.108L5.10903 18.177C5.20703 18.0797 5.32203 18.0277 5.45403 18.021C5.58603 18.0144 5.70703 18.0664 5.81703 18.177C5.92703 18.2877 5.98237 18.4067 5.98303 18.534C5.9837 18.6614 5.92837 18.7804 5.81703 18.891L4.88703 19.821C4.7937 19.9144 4.6797 19.9644 4.54503 19.971C4.4117 19.9777 4.2897 19.9277 4.17903 19.821ZM21.23 12.5C21.0874 12.5 20.9684 12.4524 20.873 12.357C20.7777 12.2617 20.7304 12.1427 20.731 12C20.7317 11.8574 20.7794 11.7384 20.874 11.643C20.9687 11.5477 21.0877 11.5 21.231 11.5H22.615C22.7577 11.5 22.8767 11.5477 22.972 11.643C23.068 11.7384 23.116 11.8574 23.116 12C23.116 12.1427 23.068 12.2617 22.972 12.357C22.876 12.4524 22.757 12.5 22.615 12.5H21.23ZM1.38303 12.5C1.24103 12.5 1.12237 12.4524 1.02703 12.357C0.9317 12.2617 0.884033 12.1427 0.884033 12C0.884033 11.8574 0.932033 11.7384 1.02803 11.643C1.12403 11.5477 1.24303 11.5 1.38503 11.5H2.76903C2.9117 11.5 3.0307 11.5477 3.12603 11.643C3.22137 11.7384 3.26903 11.8574 3.26903 12C3.26903 12.1427 3.22137 12.2617 3.12603 12.357C3.0307 12.4524 2.9117 12.5 2.76903 12.5H1.38303ZM19.82 19.821C19.71 19.931 19.591 19.986 19.463 19.986C19.335 19.986 19.2164 19.931 19.107 19.821L18.176 18.891C18.0787 18.793 18.0267 18.678 18.02 18.546C18.0134 18.414 18.0654 18.293 18.176 18.183C18.2867 18.073 18.4057 18.0177 18.533 18.017C18.6604 18.0164 18.779 18.0717 18.889 18.183L19.82 19.113C19.9134 19.2064 19.9634 19.3204 19.97 19.455C19.9767 19.5884 19.9267 19.7104 19.82 19.821ZM5.82303 5.81703C5.71303 5.9277 5.59403 5.98303 5.46603 5.98303C5.33803 5.98303 5.21937 5.9277 5.11003 5.81703L4.17903 4.88703C4.0857 4.7937 4.0357 4.6797 4.02903 4.54503C4.02237 4.4117 4.07237 4.2897 4.17903 4.17903C4.28903 4.06903 4.40803 4.01403 4.53603 4.01403C4.66403 4.01403 4.7827 4.06903 4.89203 4.17903L5.82303 5.10903C5.92037 5.20703 5.97237 5.32203 5.97903 5.45403C5.9857 5.58603 5.9337 5.70703 5.82303 5.81703Z" fill="#448D96"/>
</g>
<defs>
<clipPath id="clip0_81_1051">
<rect width="24" height="24" fill="white"/>
</clipPath>
</defs>
</svg>
