<svg width="24" height="24" viewBox="0 0 24 24" fill="none" xmlns="http://www.w3.org/2000/svg">
<path d="M11.385 14V15.885C11.385 16.0556 11.445 16.2006 11.565 16.32C11.685 16.4393 11.8307 16.4993 12.002 16.5C12.1733 16.5006 12.3183 16.4406 12.437 16.32C12.5557 16.1993 12.6153 16.054 12.616 15.884V14H14.5C14.6713 14 14.8167 13.94 14.936 13.82C15.056 13.7 15.116 13.554 15.116 13.382C15.116 13.2106 15.056 13.0656 14.936 12.947C14.816 12.8283 14.6707 12.769 14.5 12.769H12.616V10.884C12.616 10.7133 12.556 10.5683 12.436 10.449C12.316 10.3296 12.17 10.2696 11.998 10.269C11.826 10.2683 11.681 10.3283 11.563 10.449C11.445 10.5696 11.3853 10.715 11.384 10.885V12.769H9.5C9.32933 12.769 9.184 12.829 9.064 12.949C8.944 13.069 8.884 13.215 8.884 13.387C8.884 13.559 8.944 13.704 9.064 13.822C9.184 13.94 9.32933 13.9993 9.5 14H11.385ZM7.615 19.885C7.171 19.885 6.791 19.7266 6.475 19.41C6.159 19.0933 6.00067 18.7133 6 18.27V8.49997C6 8.05597 6.15833 7.67597 6.475 7.35997C6.791 7.04263 7.171 6.88397 7.615 6.88397H16.385C16.829 6.88397 17.209 7.0423 17.525 7.35897C17.8417 7.67563 18 8.05597 18 8.49997V18.27C18 18.714 17.8417 19.094 17.525 19.41C17.2083 19.726 16.8283 19.8843 16.385 19.885H7.615ZM7.615 18.885H16.385C16.5383 18.885 16.6793 18.8206 16.808 18.692C16.9367 18.5633 17.0007 18.4226 17 18.27V8.49997C17 8.34663 16.936 8.20563 16.808 8.07697C16.6793 7.94897 16.538 7.88497 16.384 7.88497H7.616C7.462 7.88497 7.32067 7.94897 7.192 8.07697C7.06333 8.20497 6.99933 8.34597 7 8.49997V18.27C7 18.4233 7.064 18.564 7.192 18.692C7.32 18.82 7.461 18.8843 7.615 18.885ZM6.961 5.11497C6.81967 5.11497 6.701 5.0673 6.605 4.97197C6.509 4.87663 6.461 4.75763 6.461 4.61497C6.461 4.4723 6.509 4.35363 6.605 4.25897C6.701 4.1643 6.81967 4.11663 6.961 4.11597H17.04C17.1813 4.11597 17.3 4.16363 17.396 4.25897C17.4913 4.35497 17.539 4.47397 17.539 4.61597C17.539 4.75797 17.4913 4.87663 17.396 4.97197C17.3007 5.0673 17.1817 5.1153 17.039 5.11597L6.961 5.11497Z" fill="#F5A623"/>
</svg>
