<svg width="14" height="15" viewBox="0 0 14 15" fill="none" xmlns="http://www.w3.org/2000/svg">
<path fill-rule="evenodd" clip-rule="evenodd" d="M5.44763 0.182047C6.16163 -0.0829533 6.92863 -0.0679536 7.61713 0.288546C8.27213 0.627046 8.71563 1.20005 8.99463 1.79905C9.09896 2.02305 9.19613 2.23288 9.28613 2.42855C9.50613 2.90555 9.68613 3.29705 9.85863 3.63855C10.1016 4.12205 10.2796 4.40555 10.4366 4.58855C10.5716 4.74505 10.6871 4.82455 10.8361 4.88255C11.0111 4.95155 11.2976 5.01405 11.8071 5.02955C12.1775 5.04062 12.5283 5.19837 12.7824 5.46809C13.0364 5.73782 13.173 6.09742 13.1619 6.4678C13.1508 6.83817 12.9931 7.18898 12.7233 7.44304C12.4536 7.69711 12.094 7.83362 11.7236 7.82255C11.0451 7.80205 10.4066 7.71505 9.81913 7.48555C9.20513 7.24555 8.72063 6.87905 8.31663 6.40805C8.26857 6.3522 8.22189 6.29518 8.17663 6.23705L7.97513 7.28905L10.1586 9.44355C10.2981 9.58055 10.4066 9.74555 10.4781 9.92755L11.7201 13.0925C11.7871 13.2633 11.8199 13.4456 11.8164 13.6291C11.813 13.8125 11.7734 13.9934 11.7 14.1616C11.6266 14.3297 11.5209 14.4818 11.3887 14.609C11.2566 14.7363 11.1007 14.8363 10.9299 14.9033C10.7591 14.9703 10.5768 15.003 10.3934 14.9996C10.2099 14.9961 10.029 14.9566 9.86084 14.8832C9.6927 14.8098 9.54065 14.704 9.41339 14.5719C9.28613 14.4397 9.18614 14.2838 9.11913 14.113L7.98513 11.2245L4.05563 7.34705C3.90521 7.19833 3.79044 7.01746 3.71995 6.81802C3.64946 6.61858 3.62507 6.40576 3.64863 6.19555L3.81113 4.76055C3.36513 5.33705 2.99013 6.03055 2.72813 6.85055C2.61548 7.20355 2.36721 7.49734 2.03795 7.6673C1.70868 7.83725 1.32539 7.86945 0.972382 7.7568C0.619379 7.64415 0.325584 7.39588 0.155629 7.06661C-0.0143255 6.73735 -0.0465185 6.35405 0.0661322 6.00105C0.950132 3.23205 2.94963 1.14655 5.43113 0.188546L5.43413 0.187046L5.44763 0.182047ZM5.79763 1.11905L5.78963 1.12205C3.59863 1.96855 1.81263 3.81755 1.01913 6.30505C1.00328 6.35472 0.997357 6.40703 1.00172 6.45899C1.00607 6.51095 1.02062 6.56154 1.04454 6.60788C1.06845 6.65421 1.10125 6.69539 1.14107 6.72904C1.1809 6.7627 1.22696 6.78819 1.27663 6.80405C1.3263 6.8199 1.37861 6.82582 1.43057 6.82146C1.48253 6.8171 1.53313 6.80255 1.57946 6.77864C1.6258 6.75473 1.66697 6.72193 1.70063 6.68211C1.73429 6.64228 1.75977 6.59622 1.77563 6.54655C2.27263 4.99005 3.13813 3.81255 4.15563 2.98155C4.2326 2.91875 4.32652 2.8803 4.42543 2.8711C4.52434 2.8619 4.62374 2.88237 4.71097 2.9299C4.7982 2.97743 4.86929 3.04986 4.91518 3.13796C4.96107 3.22606 4.97968 3.32583 4.96863 3.42455L4.64263 6.30805C4.63611 6.36773 4.64311 6.42811 4.6631 6.48471C4.6831 6.54132 4.71558 6.5927 4.75813 6.63505L8.76313 10.587C8.81347 10.6367 8.85163 10.6944 8.87763 10.76L10.0501 13.748C10.0685 13.7975 10.0965 13.8428 10.1326 13.8813C10.1687 13.9198 10.212 13.9507 10.2602 13.9723C10.3083 13.9938 10.3603 14.0055 10.413 14.0068C10.4658 14.008 10.5182 13.9987 10.5673 13.9794C10.6164 13.9602 10.6612 13.9313 10.699 13.8945C10.7369 13.8578 10.767 13.8138 10.7876 13.7653C10.8083 13.7167 10.819 13.6646 10.8193 13.6118C10.8196 13.5591 10.8093 13.5068 10.7891 13.458L9.54713 10.293C9.52689 10.2413 9.49606 10.1943 9.45663 10.155L7.08263 7.81305C7.0241 7.75533 6.98071 7.68407 6.95629 7.60558C6.93187 7.52708 6.92718 7.44378 6.94263 7.36305L7.43313 4.80055C7.45256 4.69862 7.50322 4.60527 7.57808 4.53343C7.65295 4.46158 7.74831 4.41481 7.85094 4.39959C7.95358 4.38437 8.05841 4.40146 8.1509 4.44849C8.24339 4.49551 8.31896 4.57015 8.36713 4.66205C8.59213 5.09055 8.81713 5.45705 9.07513 5.75705C9.38313 6.11555 9.73563 6.37905 10.1831 6.55405C10.6231 6.72605 11.1356 6.80405 11.7531 6.82255C11.8058 6.82512 11.8585 6.81717 11.9081 6.79915C11.9577 6.78113 12.0032 6.75342 12.0419 6.71762C12.0807 6.68182 12.1119 6.63865 12.1338 6.59064C12.1556 6.54264 12.1677 6.49075 12.1693 6.43802C12.1709 6.38529 12.162 6.33277 12.1431 6.28353C12.1241 6.23429 12.0956 6.18932 12.059 6.15124C12.0225 6.11316 11.9788 6.08274 11.9304 6.06176C11.882 6.04078 11.8299 6.02966 11.7771 6.02905C11.2071 6.01205 10.7951 5.94055 10.4721 5.81405C10.1571 5.69105 9.90913 5.50905 9.67813 5.23955C9.44013 4.96305 9.21913 4.59255 8.96563 4.08855C8.76387 3.68012 8.56884 3.2684 8.38063 2.85355L8.37813 2.84755C8.28847 2.65188 8.1918 2.44305 8.08813 2.22105C7.87313 1.76005 7.56313 1.38605 7.15813 1.17655C6.74413 0.962547 6.27363 0.942547 5.79763 1.11905Z" fill="#448D96"/>
</svg>
