<svg width="24" height="24" viewBox="0 0 24 24" fill="none" xmlns="http://www.w3.org/2000/svg">
<path d="M5.74994 1.49996L5.49994 6.99996M8.24994 1.49996L8.49994 6.99996M16.1044 1.56946C18.0244 2.99546 20.7079 6.92696 20.9779 12.9985C21.0059 13.627 20.6999 14.2225 20.1289 14.4875C19.7214 14.6765 19.1704 14.8915 18.4764 15.0745C18.3538 15.1053 18.2467 15.1802 18.1757 15.2848C18.1047 15.3895 18.0747 15.5166 18.0914 15.642L18.7044 19.931C18.8744 21.1225 18.4079 22.19 17.2469 22.5095C16.1619 22.8085 14.9999 22.0875 14.9999 20.9615V2.25296C14.9999 1.61096 15.5889 1.18696 16.1044 1.56946ZM10.9724 2.67896C11.2024 4.03796 11.5244 6.41246 11.4984 8.94796C11.4854 10.2565 10.6114 11.429 9.23744 11.737C8.95344 11.8005 8.65094 11.858 8.33494 11.9025L9.25694 19.8925C9.39694 21.1085 8.64394 22.301 7.43094 22.465C7.28813 22.4855 7.14419 22.4972 6.99994 22.5C6.87844 22.5 6.73094 22.487 6.56844 22.465C5.35594 22.301 4.60294 21.1085 4.74344 19.8925L5.66494 11.9025C5.3622 11.8595 5.06129 11.8044 4.76294 11.7375C3.38844 11.429 2.51444 10.256 2.50094 8.94746C2.47544 6.41246 2.79644 4.03846 3.02644 2.67946C3.14344 1.98696 3.74944 1.49996 4.45144 1.49996H9.54744C10.2499 1.49996 10.8554 1.98646 10.9724 2.67896Z" stroke="#FF98B0" stroke-width="1.5" stroke-linecap="round" stroke-linejoin="round"/>
</svg>
